{"title":"George Michael - TwentyFive - the videos Collection(2006).mp4","uid":8476985,"size":5133090058,"categoryP":"video","categoryS":"music_videos","magnet":"?xt=urn:btih:69181b5728e398bef87f1744f1d7bae71a7b0d6b&amp;dn=George+Michael+-+TwentyFive+-+the+videos+Collection%282006%29.mp4&amp;tr=udp%3A%2F%2Ftracker.openbittorrent.com%3A80&amp;tr=udp%3A%2F%2Fopen.demonii.com%3A1337&amp;tr=udp%3A%2F%2Ftracker.coppersurfer.tk%3A6969&amp;tr=udp%3A%2F%2Fexodus.desync.com%3A6969","seeders":1,"leechers":0,"uploader":null,"files":1,"time":1368639149,"description":"Twenty Five is a video album by British singer George Michael, released in November 2006. It contains forty videos , including seven with Wham!.\n\n\n\nTracklist: \n\n\n1.&quot;Club Tropicana&quot;\n\n2.&quot;Wake Me Up Before You Go-Go&quot;\n\n3.&quot;Freedom&quot;\n\n4.&quot;Last Christmas&quot;\n\n5.&quot;Everything She Wants&quot;\n\n6.&quot;I'm Your Man&quot;\n\n7.&quot;The Edge of Heaven&quot;\n\n8.&quot;Careless Whisper&quot;\n\n9.&quot;A Different Corner&quot;\n\n10.&quot;I Knew You Were Waiting (For Me)&quot; (with Aretha Franklin)\n\n11.&quot;I Want Your Sex&quot;\n\n12.&quot;Faith&quot;\n\n13.&quot;Father Figure&quot;\n\n14.&quot;One More Try&quot;\n\n15.&quot;Monkey&quot;\n\n16.&quot;Kissing a Fool&quot;\n\n17.&quot;Freedom! '90&quot;\n\n18.&quot;Don't Let the Sun Go Down on Me&quot; (with Elton John)\n\n19.&quot;Too Funky&quot;\n\n20.&quot;Fastlove&quot;\n\n21.&quot;Jesus to a Child&quot;\n\n22.&quot;Spinning the Wheel&quot;\n\n23.&quot;Older&quot;\n\n24.&quot;Outside&quot;\n\n25.&quot;As&quot; (with Mary J. Blige)\n\n26.&quot;Freeek!&quot;\n\n27.&quot;Amazing&quot;\n\n28.&quot;John and Elvis Are Dead&quot;\n\n29.&quot;Flawless (Go to the City)&quot;\n\n30.&quot;Shoot the Dog&quot;\n\n31.&quot;Roxanne&quot;\n\n32.&quot;An Easier Affair&quot;\n\n33.&quot;If I Told You That&quot; (with Whitney Houston)\n\n34.&quot;Waltz Away Dreaming&quot;\n\n35.&quot;Somebody to Love&quot; (with Queen)\n\n36.&quot;I Can't Make You Love Me&quot;\n\n37.&quot;Star People&quot; '97\n\n38.&quot;You Have Been Loved&quot;\n\n39.&quot;Killer/Papa Was a Rollin' Stone&quot;\n\n40.&quot;Round Here&quot;\n\n\n\nFormat                                   : MPEG-4\nFormat profile                           : Base Media / Version 2\nCodec ID                                 : mp42\nFile size                                : 4.78 GiB\nDuration                                 : 3h 19mn\nOverall bit rate mode                    : Variable\nOverall bit rate                         : 3 437 Kbps\n\nVideo\nID                                       : 2\nFormat                                   : AVC\nFormat/Info                              : Advanced Video Codec\nFormat profile                           : &lt;a class=&quot;__cf_email__&quot; href=&quot;/cdn-cgi/l/email-protection&quot; data-cfemail=&quot;afe7c6c8c7efe39b819f&quot;&gt;[email&amp;#160;protected]&lt;/a&gt;&lt;script data-cfhash='f9e31' type=&quot;text/javascript&quot;&gt;\n/* &lt;![CDATA[ */!function(){try{var t=&quot;currentScript&quot;in document?document.currentScript:function(){for(var t=document.getElementsByTagName(&quot;script&quot;),e=t.length;e--;)if(t[e].getAttribute(&quot;data-cfhash&quot;))return t[e]}();if(t&amp;&amp;t.previousSibling){var e,r,n,i,c=t.previousSibling,a=c.getAttribute(&quot;data-cfemail&quot;);if(a){for(e=&quot;&quot;,r=parseInt(a.substr(0,2),16),n=2;a.length-n;n+=2)i=parseInt(a.substr(n,2),16)^r,e+=String.fromCharCode(i);e=document.createTextNode(e),c.parentNode.replaceChild(e,c)}t.parentNode.removeChild(t);}}catch(u){}}()/* ]]&gt; */&lt;/script&gt;\nFormat settings, CABAC                   : Yes\nFormat settings, ReFrames                : 4 frames\nCodec ID                                 : avc1\nCodec ID/Info                            : Advanced Video Coding\nDuration                                 : 3h 19mn\nSource duration                          : 3h 19mn\nBit rate mode                            : Variable\nBit rate                                 : 2 797 Kbps\nWidth                                    : 720 pixels\nHeight                                   : 544 pixels\nDisplay aspect ratio                     : 4:3\nFrame rate mode                          : Variable\nFrame rate                               : 25.000 fps\nMinimum frame rate                       : 24.975 fps\nMaximum frame rate                       : 25.536 fps\nStandard                                 : NTSC\nColor space                              : YUV\nChroma subsampling                       : 4:2:0\nBit depth                                : 8 bits\nScan type                                : Progressive\nBits/(Pixel*Frame)                       : 0.286\nStream size                              : 3.89 GiB (81%)\nSource stream size                       : 3.89 GiB (81%)\nLanguage                                 : English\nmdhd_Duration                            : 11949119\nColor primaries                          : BT.601 NTSC\nTransfer characteristics                 : BT.601\nMatrix coefficients                      : BT.601\n\nAudio\nID                                       : 1\nFormat                                   : AAC\nFormat/Info                              : Advanced Audio Codec\nFormat profile                           : LC\nCodec ID                                 : 40\nDuration                                 : 3h 19mn\nSource duration                          : 3h 19mn\nBit rate mode                            : Variable\nBit rate                                 : 635 Kbps\nMaximum bit rate                         : 962 Kbps\nChannel(s)                               : 6 channels\nChannel positions                        : Front: L C R, Side: L R, LFE\nSampling rate                            : 48.0 KHz\nCompression mode                         : Lossy\nStream size                              : 904 MiB (18%)\nSource stream size                       : 905 MiB (18%)\nLanguage                                 : English\nmdhd_Duration                            : 11949386\n","torrent":{"xt":"urn:btih:69181b5728e398bef87f1744f1d7bae71a7b0d6b","amp;dn":"George+Michael+-+TwentyFive+-+the+videos+Collection%282006%29.mp4","amp;tr":["udp%3A%2F%2Ftracker.openbittorrent.com%3A80","udp%3A%2F%2Fopen.demonii.com%3A1337","udp%3A%2F%2Ftracker.coppersurfer.tk%3A6969","udp%3A%2F%2Fexodus.desync.com%3A6969"],"infoHash":"69181b5728e398bef87f1744f1d7bae71a7b0d6b","infoHashBuffer":{"type":"Buffer","data":[105,24,27,87,40,227,152,190,248,127,23,68,241,215,186,231,26,123,13,107]},"announce":[],"urlList":[]}}